<?xml version="1.0" standalone="no"?>
<!DOCTYPE svg PUBLIC "-//W3C//DTD SVG 20010904//EN"
 "http://www.w3.org/TR/2001/REC-SVG-20010904/DTD/svg10.dtd">
<svg version="1.0" xmlns="http://www.w3.org/2000/svg"
 width="700.000000pt" height="700.000000pt" viewBox="0 0 700.000000 700.000000"
 preserveAspectRatio="xMidYMid meet">
<metadata>
Created by potrace 1.11, written by Peter Selinger 2001-2013
</metadata>
<g transform="translate(0.000000,700.000000) scale(0.100000,-0.100000)"
fill="#000000" stroke="none">
<path d="M3450 6993 c-36 -14 -69 -45 -85 -79 -15 -31 -17 -76 -17 -375 0
-315 1 -341 19 -371 60 -104 205 -104 265 -2 17 29 19 61 19 372 1 376 -1 390
-62 433 -29 21 -111 34 -139 22z"/>
<path d="M1764 6536 c-39 -17 -81 -71 -87 -111 -2 -16 1 -46 7 -66 19 -62 328
-589 358 -610 40 -29 108 -35 152 -14 51 24 79 68 83 129 4 46 0 59 -45 136
-27 47 -60 105 -74 130 -73 128 -195 338 -208 356 -39 56 -121 78 -186 50z"/>
<path d="M5105 6533 c-40 -22 -65 -56 -153 -213 -14 -25 -34 -58 -44 -75 -10
-16 -21 -37 -25 -45 -3 -8 -21 -39 -40 -68 -18 -29 -33 -54 -33 -55 0 -2 -20
-39 -45 -83 -50 -87 -57 -132 -29 -190 41 -86 166 -110 235 -44 19 17 57 80
229 378 112 194 122 217 122 262 0 111 -121 185 -217 133z"/>
<path d="M3508 5786 c-1 -2 -61 -6 -133 -9 -71 -4 -139 -8 -150 -11 -11 -2
-42 -7 -68 -10 -43 -6 -104 -17 -162 -30 -256 -55 -518 -168 -750 -321 -112
-75 -133 -90 -214 -159 -341 -288 -587 -663 -717 -1091 -14 -44 -26 -89 -29
-100 -10 -49 -14 -68 -19 -83 -3 -9 -8 -37 -11 -62 -4 -24 -8 -47 -10 -50 -2
-3 -6 -39 -10 -80 -4 -41 -9 -88 -11 -105 -5 -44 -4 -312 1 -370 83 -873 632
-1608 1440 -1928 90 -36 308 -102 368 -112 18 -3 57 -10 87 -15 64 -11 126
-19 190 -25 54 -5 322 -6 365 -1 17 2 62 7 100 11 163 16 413 81 585 152 677
278 1179 858 1354 1562 21 82 33 147 51 271 21 142 21 413 0 560 -28 198 -78
402 -125 515 -4 11 -18 45 -30 75 -293 729 -991 1276 -1765 1385 -22 3 -45 8
-52 10 -6 2 -67 7 -135 10 -68 4 -128 8 -135 10 -6 2 -13 2 -15 1z"/>
<path d="M544 5319 c-38 -11 -94 -71 -95 -102 0 -12 -2 -31 -4 -43 -9 -43 36
-105 104 -146 34 -21 64 -38 66 -38 1 0 94 -53 206 -119 112 -65 218 -125 236
-135 102 -52 231 30 219 141 -6 54 -27 93 -65 121 -16 12 -33 22 -36 22 -4 0
-45 23 -93 51 -48 29 -103 61 -122 72 -19 10 -97 55 -173 100 -143 83 -182 95
-243 76z"/>
<path d="M6329 5307 c-54 -29 -141 -77 -154 -87 -5 -4 -32 -20 -60 -35 -182
-100 -330 -189 -355 -215 -40 -41 -51 -110 -24 -165 21 -45 44 -64 96 -80 59
-17 76 -11 294 115 343 198 369 214 391 238 65 71 43 189 -42 231 -54 27 -91
26 -146 -2z"/>
<path d="M170 3652 c-109 -8 -165 -60 -165 -152 1 -64 20 -99 72 -130 34 -20
48 -21 376 -21 304 1 344 3 376 18 107 53 109 204 4 266 -30 17 -59 19 -330
20 -164 1 -314 1 -333 -1z"/>
<path d="M6211 3649 c-137 -28 -166 -211 -44 -282 30 -17 57 -18 373 -18 187
1 351 6 364 11 63 24 103 99 91 170 -9 54 -61 108 -112 116 -51 8 -634 11
-672 3z"/>
<path d="M1080 2273 c-24 -8 -59 -25 -79 -38 -20 -13 -134 -80 -254 -149 -120
-70 -229 -134 -242 -144 -56 -41 -71 -135 -32 -192 46 -68 105 -90 177 -65 33
12 559 314 588 338 44 36 58 119 30 176 -35 71 -109 100 -188 74z"/>
<path d="M5810 2274 c-115 -49 -128 -200 -22 -268 20 -13 154 -92 297 -174
283 -164 311 -174 377 -141 89 45 117 160 55 230 -18 21 -455 281 -575 343
-45 23 -92 26 -132 10z"/>
<path d="M2082 1273 c-31 -6 -82 -60 -113 -119 -14 -27 -62 -110 -106 -184
-43 -75 -83 -142 -87 -150 -4 -8 -12 -24 -19 -35 -80 -133 -93 -173 -75 -228
31 -94 133 -134 218 -86 35 20 71 73 195 291 6 9 39 68 75 130 36 62 67 118
69 123 2 6 12 22 22 37 38 54 16 157 -43 200 -30 21 -92 31 -136 21z"/>
<path d="M4799 1260 c-49 -26 -81 -81 -78 -134 1 -23 16 -67 34 -101 54 -100
297 -519 310 -531 41 -42 123 -56 173 -30 62 33 101 112 83 172 -10 33 -67
141 -87 165 -8 8 -14 18 -14 21 0 3 -53 97 -119 209 -97 167 -125 208 -154
225 -48 26 -103 28 -148 4z"/>
<path d="M3477 910 c-47 -9 -86 -36 -111 -79 -17 -29 -18 -57 -17 -375 0 -330
1 -345 21 -379 65 -110 222 -97 271 23 7 16 10 152 10 363 -1 356 -3 368 -48
409 -32 30 -85 45 -126 38z"/>
</g>
</svg>
